<?xml version="1.0" encoding="utf-8"?>
<!-- Generator: Adobe Illustrator 27.8.1, SVG Export Plug-In . SVG Version: 6.00 Build 0)  -->
<svg version="1.1" id="Layer_1" xmlns="http://www.w3.org/2000/svg" xmlns:xlink="http://www.w3.org/1999/xlink" x="0px" y="0px"
	 viewBox="0 0 512 512" style="enable-background:new 0 0 512 512;" xml:space="preserve">
<style type="text/css">
	.st0{fill:#E9AE90;}
</style>
<g>
	<path class="st0" d="M321.3,321.3h-83.4H226v-11.9v-71.5V226h11.9h83.4v-83.4v-11.9h11.9h71.5h11.9v11.9V226h82.2
		c8.6-18,13.1-37.9,13.1-58.2C512,92.8,451.2,32,376.2,32c-36,0-70.5,14.3-96,39.8L256,96l-24.2-24.2c-25.5-25.5-60-39.8-96-39.8
		C60.8,32,0,92.8,0,167.8c0,36,14.3,70.5,39.8,96L64,288l192,192l65.3-65.3V321.3z"/>
	<path class="st0" d="M392.8,249.8v-11.9v-83.4h-47.7v83.4v11.9h-11.9h-83.4v47.7h83.4h11.9v11.9v81.4l47.7-47.7v-33.8v-11.9h11.9
		h33.8l9.5-9.5l24.2-24.2c4.4-4.4,8.5-9.1,12.2-14h-79.6H392.8z"/>
</g>
</svg>
